<svg width="57" height="57" viewBox="0 0 57 57" fill="none" xmlns="http://www.w3.org/2000/svg">
<mask id="mask0_4706_7163" style="mask-type:luminance" maskUnits="userSpaceOnUse" x="0" y="0" width="57" height="57">
<path d="M0.879639 0.191071H56.8814V56.3217H0.879639V0.191071Z" fill="white"/>
</mask>
<g mask="url(#mask0_4706_7163)">
<path d="M12.9003 0.191071C8.49712 0.191071 4.88484 3.8115 4.88484 8.22461C4.88484 10.4197 5.78474 12.4167 7.22458 13.8699C3.50837 15.9253 0.879639 19.7515 0.879639 24.2866H4.88484C4.88484 19.8278 8.45149 16.2556 12.9003 16.2556C17.3466 16.2556 20.9132 19.8278 20.9132 24.2866H24.9184C24.9184 19.7515 22.2897 15.9253 18.5735 13.8699C20.0133 12.4167 20.9132 10.4197 20.9132 8.22461C20.9132 3.8115 17.3009 0.191071 12.9003 0.191071ZM12.9003 4.20784C15.1361 4.20784 16.9055 5.98121 16.9055 8.22461C16.9055 10.4655 15.1361 12.2388 12.9003 12.2388C10.662 12.2388 8.89257 10.4655 8.89257 8.22461C8.89257 5.98121 10.662 4.20784 12.9003 4.20784ZM28.9262 4.20784C27.2987 4.20784 25.7043 4.3552 24.1554 4.64229L24.8829 8.593C26.1935 8.3491 27.5446 8.22461 28.9262 8.22461C41.1192 8.22461 50.9624 18.09 50.9624 30.3105H54.9701C54.9701 15.9177 43.284 4.20784 28.9262 4.20784ZM2.88224 30.3105C2.88224 31.8628 3.01912 33.3847 3.27769 34.8633V34.8659C5.43238 47.1118 16.1171 56.4131 28.9262 56.4131V52.3964C18.0488 52.3964 9.04973 44.5254 7.22458 34.1723C7.00658 32.9197 6.88997 31.6265 6.88997 30.3105H2.88224ZM44.952 32.3176C40.5514 32.3176 36.9391 35.938 36.9391 40.3486C36.9391 42.5463 37.8365 44.5407 39.2788 45.9965C35.5626 48.0518 32.9314 51.8755 32.9314 56.4131H36.9391C36.9391 51.9543 40.5032 48.3796 44.952 48.3796C49.4008 48.3796 52.965 51.9543 52.965 56.4131H56.9727C56.9727 51.8755 54.344 48.0518 50.6252 45.9965C52.0676 44.5407 52.965 42.5463 52.965 40.3486C52.965 35.938 49.3552 32.3176 44.952 32.3176ZM44.952 36.3344C47.1904 36.3344 48.9598 38.1077 48.9598 40.3486C48.9598 42.592 47.1904 44.3654 44.952 44.3654C42.7162 44.3654 40.9468 42.592 40.9468 40.3486C40.9468 38.1077 42.7162 36.3344 44.952 36.3344Z" fill="#14B1A4"/>
</g>
</svg>
